<svg xmlns="http://www.w3.org/2000/svg" viewBox="0 0 150 155"><linearGradient id="a" gradientUnits="userSpaceOnUse" x1="26.137" y1="12.656" x2="126.551" y2="12.656" gradientTransform="matrix(.8864 .1136 .1136 .8864 -18.857 18.857)"><stop offset="0" stop-color="#26efa6"/><stop offset=".094" stop-color="#3df1af" stop-opacity=".906"/><stop offset=".543" stop-color="#a4f8da" stop-opacity=".457"/><stop offset=".854" stop-color="#e6fdf5" stop-opacity=".146"/><stop offset="1" stop-color="#fff" stop-opacity="0"/></linearGradient><path fill="none" stroke="url(#a)" stroke-width="2" stroke-miterlimit="10" d="M88.5.5L12 77"/><linearGradient id="b" gradientUnits="userSpaceOnUse" x1="4.333" y1="102.04" x2="71.747" y2="102.04" gradientTransform="matrix(1.0985 .09848 .09848 1.0985 -.336 -.336)"><stop offset="0" stop-color="#26efa6"/><stop offset=".094" stop-color="#3df1af" stop-opacity=".906"/><stop offset=".543" stop-color="#a4f8da" stop-opacity=".457"/><stop offset=".854" stop-color="#e6fdf5" stop-opacity=".146"/><stop offset="1" stop-color="#fff" stop-opacity="0"/></linearGradient><path fill="none" stroke="url(#b)" stroke-width="2" stroke-miterlimit="10" d="M12 76l79 79"/><linearGradient id="c" gradientUnits="userSpaceOnUse" x1="562.705" y1="142.088" x2="663.12" y2="142.088" gradientTransform="matrix(-.904 -.09596 -.09596 -.904 668.232 302.768)"><stop offset="0" stop-color="#26efa6"/><stop offset=".094" stop-color="#3df1af" stop-opacity=".906"/><stop offset=".543" stop-color="#a4f8da" stop-opacity=".457"/><stop offset=".854" stop-color="#e6fdf5" stop-opacity=".146"/><stop offset="1" stop-color="#fff" stop-opacity="0"/></linearGradient><path fill="none" stroke="url(#c)" stroke-width="2" stroke-miterlimit="10" d="M60.5 155.5l80-80"/><linearGradient id="d" gradientUnits="userSpaceOnUse" x1="461.873" y1="230.58" x2="529.287" y2="230.58" gradientTransform="matrix(-1.0682 -.06818 -.06818 -1.0682 648.09 319.09)"><stop offset="0" stop-color="#26efa6"/><stop offset=".094" stop-color="#3df1af" stop-opacity=".906"/><stop offset=".543" stop-color="#a4f8da" stop-opacity=".457"/><stop offset=".854" stop-color="#e6fdf5" stop-opacity=".146"/><stop offset="1" stop-color="#fff" stop-opacity="0"/></linearGradient><path fill="none" stroke="url(#d)" stroke-width="2" stroke-miterlimit="10" d="M140.5 76.5l-75-75"/><path d="M51.5 22v54c0 5 2.2 6.8 5.7 6.8s5.7-1.8 5.7-6.8V22h10.4v53.3c0 11.2-5.6 17.6-16.4 17.6-10.8 0-16.4-6.4-16.4-17.6V22h11zM83 62h11v60h18.1v10H83V62z" fill="#fff"/></svg>